<svg width="8.328796" height="14.047852" viewBox="0 0 8.3288 14.0479" fill="none" xmlns="http://www.w3.org/2000/svg" xmlns:xlink="http://www.w3.org/1999/xlink">
	<desc>
			Created with Pixso.
	</desc>
	<defs/>
	<path id="Vector" d="M3.22 6.99L7.94 2.27C8.18 2.02 8.32 1.68 8.32 1.33C8.32 0.98 8.18 0.64 7.94 0.39C7.81 0.26 7.66 0.17 7.5 0.1C7.34 0.03 7.17 0 6.99 0C6.81 0 6.64 0.03 6.48 0.1C6.31 0.17 6.17 0.26 6.04 0.39L0.39 6.04C0.26 6.17 0.17 6.31 0.1 6.48C0.03 6.64 0 6.81 0 6.99C0 7.17 0.03 7.34 0.1 7.5C0.17 7.66 0.26 7.81 0.39 7.94L6.04 13.66C6.17 13.78 6.32 13.88 6.48 13.94C6.64 14.01 6.81 14.04 6.99 14.04C7.16 14.04 7.34 14.01 7.5 13.94C7.66 13.88 7.81 13.78 7.94 13.66C8.18 13.41 8.32 13.07 8.32 12.72C8.32 12.36 8.18 12.03 7.94 11.78L3.22 6.99Z" fill="#081C00" fill-opacity="1.000000" fill-rule="nonzero"/>
</svg>
