<svg width="8.328796" height="13.980957" viewBox="0 0 8.3288 13.981" fill="none" xmlns="http://www.w3.org/2000/svg" xmlns:xlink="http://www.w3.org/1999/xlink">
	<desc>
			Created with Pixso.
	</desc>
	<defs/>
	<path id="Vector" d="M7.93 6.04L2.28 0.39C2.15 0.26 2 0.17 1.84 0.1C1.68 0.03 1.51 0 1.33 0C1.15 0 0.98 0.03 0.82 0.1C0.65 0.17 0.51 0.26 0.38 0.39C0.13 0.64 0 0.98 0 1.33C0 1.68 0.13 2.02 0.38 2.27L5.1 6.99L0.38 11.71C0.13 11.96 0 12.3 0 12.65C0 13 0.13 13.34 0.38 13.59C0.51 13.71 0.66 13.81 0.82 13.88C0.98 13.94 1.15 13.98 1.33 13.98C1.5 13.98 1.68 13.94 1.84 13.88C2 13.81 2.15 13.71 2.28 13.59L7.93 7.94C8.05 7.81 8.15 7.66 8.22 7.5C8.29 7.34 8.32 7.17 8.32 6.99C8.32 6.81 8.29 6.64 8.22 6.48C8.15 6.31 8.05 6.17 7.93 6.04Z" fill="#081C00" fill-opacity="1.000000" fill-rule="nonzero"/>
</svg>
