<svg width="20.000000" height="12.000000" viewBox="0 0 20 12" fill="none" xmlns="http://www.w3.org/2000/svg" xmlns:xlink="http://www.w3.org/1999/xlink">
	<desc>
			Created with Pixso.
	</desc>
	<defs/>
	<path id="Vector" d="M1 2L19 2C19.26 2 19.51 1.89 19.7 1.7C19.89 1.51 20 1.26 20 1C20 0.73 19.89 0.48 19.7 0.29C19.51 0.1 19.26 0 19 0L1 0C0.73 0 0.48 0.1 0.29 0.29C0.1 0.48 0 0.73 0 1C0 1.26 0.1 1.51 0.29 1.7C0.48 1.89 0.73 2 1 2ZM19 10L1 10C0.73 10 0.48 10.1 0.29 10.29C0.1 10.48 0 10.73 0 11C0 11.26 0.1 11.51 0.29 11.7C0.48 11.89 0.73 12 1 12L19 12C19.26 12 19.51 11.89 19.7 11.7C19.89 11.51 20 11.26 20 11C20 10.73 19.89 10.48 19.7 10.29C19.51 10.1 19.26 10 19 10ZM19 5L1 5C0.73 5 0.48 5.1 0.29 5.29C0.1 5.48 0 5.73 0 6C0 6.26 0.1 6.51 0.29 6.7C0.48 6.89 0.73 7 1 7L19 7C19.26 7 19.51 6.89 19.7 6.7C19.89 6.51 20 6.26 20 6C20 5.73 19.89 5.48 19.7 5.29C19.51 5.1 19.26 5 19 5Z" fill="#081C00" fill-opacity="1.000000" fill-rule="nonzero"/>
</svg>
