<svg width="10.541595" height="6.246582" viewBox="0 0 10.5416 6.24658" fill="none" xmlns="http://www.w3.org/2000/svg" xmlns:xlink="http://www.w3.org/1999/xlink">
	<desc>
			Created with Pixso.
	</desc>
	<defs/>
	<path id="Vector" d="M10.24 0.29C10.05 0.1 9.8 0 9.54 0C9.27 0 9.02 0.1 8.83 0.29L5.24 3.83L1.7 0.29C1.51 0.1 1.26 0 1 0C0.73 0 0.48 0.1 0.29 0.29C0.2 0.38 0.12 0.49 0.07 0.61C0.02 0.73 0 0.86 0 1C0 1.13 0.02 1.26 0.07 1.38C0.12 1.5 0.2 1.61 0.29 1.71L4.53 5.95C4.62 6.04 4.73 6.11 4.86 6.16C4.98 6.22 5.11 6.24 5.24 6.24C5.37 6.24 5.5 6.22 5.63 6.16C5.75 6.11 5.86 6.04 5.95 5.95L10.24 1.71C10.33 1.61 10.41 1.5 10.46 1.38C10.51 1.26 10.54 1.13 10.54 1C10.54 0.86 10.51 0.73 10.46 0.61C10.41 0.49 10.33 0.38 10.24 0.29Z" fill="#081C00" fill-opacity="1.000000" fill-rule="evenodd"/>
</svg>
