<svg width="20.011841" height="19.996582" viewBox="0 0 20.0118 19.9966" fill="none" xmlns="http://www.w3.org/2000/svg" xmlns:xlink="http://www.w3.org/1999/xlink">
	<desc>
			Created with Pixso.
	</desc>
	<defs/>
	<path id="Vector" d="M19.73 18.31L16.02 14.63C17.46 12.83 18.15 10.55 17.96 8.26C17.78 5.96 16.72 3.83 15 2.29C13.29 0.76 11.05 -0.06 8.75 0C6.45 0.06 4.26 1 2.63 2.63C1 4.26 0.06 6.45 0 8.75C-0.06 11.05 0.76 13.29 2.29 15C3.83 16.72 5.96 17.78 8.26 17.96C10.55 18.15 12.83 17.46 14.63 16.02L18.31 19.7C18.4 19.79 18.51 19.86 18.63 19.91C18.75 19.97 18.88 19.99 19.02 19.99C19.15 19.99 19.28 19.97 19.4 19.91C19.52 19.86 19.63 19.79 19.73 19.7C19.91 19.51 20.01 19.26 20.01 19C20.01 18.74 19.91 18.49 19.73 18.31ZM9.02 16.02C7.63 16.02 6.28 15.61 5.13 14.84C3.98 14.07 3.08 12.97 2.55 11.69C2.02 10.42 1.88 9.01 2.15 7.65C2.42 6.29 3.09 5.05 4.07 4.07C5.05 3.09 6.29 2.42 7.65 2.15C9.01 1.88 10.42 2.02 11.69 2.55C12.97 3.08 14.07 3.98 14.84 5.13C15.61 6.28 16.02 7.63 16.02 9.02C16.02 10.87 15.28 12.65 13.97 13.97C12.65 15.28 10.87 16.02 9.02 16.02Z" fill="#081C00" fill-opacity="1.000000" fill-rule="nonzero"/>
</svg>
