<svg width="16.000000" height="20.000000" viewBox="0 0 16 20" fill="none" xmlns="http://www.w3.org/2000/svg" xmlns:xlink="http://www.w3.org/1999/xlink">
	<desc>
			Created with Pixso.
	</desc>
	<defs/>
	<path id="Vector" d="M15 5L12 5L12 4C12 2.93 11.57 1.92 10.82 1.17C10.07 0.42 9.06 0 8 0C6.93 0 5.92 0.42 5.17 1.17C4.42 1.92 4 2.93 4 4L4 5L1 5C0.73 5 0.48 5.1 0.29 5.29C0.1 5.48 0 5.73 0 6L0 17C0 17.79 0.31 18.55 0.87 19.12C1.44 19.68 2.2 20 3 20L13 20C13.79 20 14.55 19.68 15.12 19.12C15.68 18.55 16 17.79 16 17L16 6C16 5.73 15.89 5.48 15.7 5.29C15.51 5.1 15.26 5 15 5ZM6 4C6 3.46 6.21 2.96 6.58 2.58C6.96 2.21 7.46 2 8 2C8.53 2 9.03 2.21 9.41 2.58C9.78 2.96 10 3.46 10 4L10 5L6 5L6 4ZM14 17C14 17.26 13.89 17.51 13.7 17.7C13.51 17.89 13.26 18 13 18L3 18C2.73 18 2.48 17.89 2.29 17.7C2.1 17.51 2 17.26 2 17L2 7L4 7L4 8C4 8.26 4.1 8.51 4.29 8.7C4.48 8.89 4.73 9 5 9C5.26 9 5.51 8.89 5.7 8.7C5.89 8.51 6 8.26 6 8L6 7L10 7L10 8C10 8.26 10.1 8.51 10.29 8.7C10.48 8.89 10.73 9 11 9C11.26 9 11.51 8.89 11.7 8.7C11.89 8.51 12 8.26 12 8L12 7L14 7L14 17Z" fill="#081C00" fill-opacity="1.000000" fill-rule="nonzero"/>
</svg>
