<svg width="20.000000" height="16.281250" viewBox="0 0 20 16.2812" fill="none" xmlns="http://www.w3.org/2000/svg" xmlns:xlink="http://www.w3.org/1999/xlink">
	<desc>
			Created with Pixso.
	</desc>
	<defs/>
	<path id="Vector" d="M20 1.95C19.24 2.27 18.45 2.49 17.64 2.59C18.49 2.07 19.14 1.27 19.45 0.32C18.64 0.8 17.76 1.13 16.84 1.32C16.22 0.65 15.4 0.2 14.5 0.05C13.61 -0.1 12.69 0.05 11.89 0.48C11.09 0.91 10.45 1.59 10.08 2.42C9.71 3.24 9.62 4.17 9.84 5.06C8.2 4.97 6.61 4.55 5.15 3.81C3.7 3.07 2.41 2.03 1.39 0.77C1.02 1.4 0.83 2.11 0.84 2.84C0.83 3.51 1 4.17 1.32 4.77C1.63 5.36 2.09 5.87 2.66 6.25C2 6.23 1.36 6.05 0.79 5.74L0.79 5.79C0.8 6.73 1.13 7.64 1.73 8.37C2.33 9.1 3.17 9.6 4.1 9.79C3.74 9.89 3.37 9.95 3 9.96C2.74 9.95 2.48 9.93 2.23 9.89C2.49 10.7 3 11.41 3.69 11.92C4.37 12.43 5.2 12.71 6.06 12.73C4.61 13.86 2.83 14.48 1 14.49C0.66 14.49 0.33 14.47 0 14.43C1.87 15.64 4.05 16.28 6.29 16.28C7.82 16.29 9.35 16 10.78 15.42C12.2 14.84 13.5 13.98 14.59 12.89C15.68 11.8 16.54 10.51 17.13 9.09C17.71 7.66 18.01 6.14 18 4.6C18 4.43 18 4.25 18 4.07C18.78 3.48 19.46 2.76 20 1.95Z" fill="#081C00" fill-opacity="1.000000" fill-rule="nonzero"/>
</svg>
